HIERARCHY
ROOT root
{
	OFFSET 0.000000 0.000000 0.000000
	CHANNELS 6 Xposition Yposition Zposition Zrotation Yrotation Xrotation
	JOINT lhip
	{
		OFFSET 0.058581 -0.082280 -0.017664
		CHANNELS 3 Zrotation Yrotation Xrotation
		JOINT lknee
		{
			OFFSET 0.043451 -0.386469 0.008037
			CHANNELS 3 Zrotation Yrotation Xrotation
			JOINT lankle
			{
				OFFSET -0.014790 -0.426874 -0.037428
				CHANNELS 3 Zrotation Yrotation Xrotation
				JOINT ltoe
				{
					OFFSET 0.041054 -0.060286 0.122042
					CHANNELS 3 Zrotation Yrotation Xrotation
					End Site
					{
						OFFSET 0.000000 0.000000 0.000000
					}
				}
			}
		}
	}
	JOINT rhip
	{
		OFFSET -0.060310 -0.090513 -0.013543
		CHANNELS 3 Zrotation Yrotation Xrotation
		JOINT rknee
		{
			OFFSET -0.043257 -0.383688 -0.004843
			CHANNELS 3 Zrotation Yrotation Xrotation
			JOINT rankle
			{
				OFFSET 0.019056 -0.420046 -0.034562
				CHANNELS 3 Zrotation Yrotation Xrotation
				JOINT rtoe
				{
					OFFSET -0.034840 -0.062106 0.130323
					CHANNELS 3 Zrotation Yrotation Xrotation
					End Site
					{
						OFFSET 0.000000 0.000000 0.000000
					}
				}
			}
		}
	}
	JOINT lowerback
	{
		OFFSET 0.004439 0.124404 -0.038385
		CHANNELS 3 Zrotation Yrotation Xrotation
		JOINT upperback
		{
			OFFSET 0.004488 0.137956 0.026820
			CHANNELS 3 Zrotation Yrotation Xrotation
			JOINT chest
			{
				OFFSET -0.002265 0.056032 0.002855
				CHANNELS 3 Zrotation Yrotation Xrotation
				JOINT lowerneck
				{
					OFFSET -0.013390 0.211636 -0.033468
					CHANNELS 3 Zrotation Yrotation Xrotation
					JOINT upperneck
					{
						OFFSET 0.010113 0.088937 0.050410
						CHANNELS 3 Zrotation Yrotation Xrotation
						End Site
						{
							OFFSET 0.000000 0.000000 0.000000
						}
					}
				}
				JOINT lclavicle
				{
					OFFSET 0.071702 0.114000 -0.018898
					CHANNELS 3 Zrotation Yrotation Xrotation
					JOINT lshoulder
					{
						OFFSET 0.122921 0.045205 -0.019046
						CHANNELS 3 Zrotation Yrotation Xrotation
						JOINT lelbow
						{
							OFFSET 0.255332 -0.015649 -0.022946
							CHANNELS 3 Zrotation Yrotation Xrotation
							JOINT lwrist
							{
								OFFSET 0.265709 0.012698 -0.007375
								CHANNELS 3 Zrotation Yrotation Xrotation
								End Site
								{
									OFFSET 0.000000 0.000000 0.000000
								}
							}
						}
					}
				}
				JOINT rclavicle
				{
					OFFSET -0.082954 0.112472 -0.023707
					CHANNELS 3 Zrotation Yrotation Xrotation
					JOINT rshoulder
					{
						OFFSET -0.113228 0.046853 -0.008472
						CHANNELS 3 Zrotation Yrotation Xrotation
						JOINT relbow
						{
							OFFSET -0.260127 -0.014369 -0.031269
							CHANNELS 3 Zrotation Yrotation Xrotation
							JOINT rwrist
							{
								OFFSET -0.269108 0.006794 -0.006027
								CHANNELS 3 Zrotation Yrotation Xrotation
								End Site
								{
									OFFSET 0.000000 0.000000 0.000000
								}
							}
						}
					}
				}
			}
		}
	}
}
MOTION
Frames: 8
Frame Time: 0.033333
-1.697094 0.572896 0.995553 89.887827 -1.596175 88.466298 0.344852 3.060383 7.990505 3.074313 -17.255153 -7.802402 5.923403 11.738971 -16.221530 0.000000 -0.000000 0.000000 -2.449865 -5.997358 4.091996 -3.915479 7.505710 -2.648716 3.780073 -17.577778 -9.970283 0.000000 -0.000000 0.000000 0.668305 0.985473 5.290884 -0.944268 -1.935059 0.210695 -0.672316 -1.297272 7.227672 -0.613110 -8.186276 4.047767 1.024155 -5.267030 1.391298 -8.396339 10.285538 -1.831179 -19.088853 -3.451610 -5.851170 7.310585 -34.244965 3.328106 -0.227623 -14.091611 7.687061 2.687416 -5.649012 -7.833301 19.260737 -3.592771 -2.566508 -12.236279 32.822586 -8.282074 10.119777 10.523700 1.088319 
-1.698392 0.570820 0.995660 90.096737 -1.663915 88.576586 0.378175 3.018108 7.602059 3.072110 -17.389021 -7.430042 5.460923 11.782055 -16.485550 0.000000 -0.000000 0.000000 -2.362688 -5.786974 3.947869 -3.854708 7.340754 -2.588424 4.352686 -17.839742 -10.201553 0.000000 -0.000000 0.000000 0.642933 0.849056 5.421187 -1.077447 -1.807804 0.316028 -0.590076 -1.180220 7.392573 -0.741731 -9.795329 3.226282 1.443103 -6.981621 0.282059 -8.422683 10.287197 -2.017537 -19.035002 -3.669936 -5.844215 7.280473 -34.114842 3.247051 0.214784 -14.214043 8.176869 2.658463 -5.511785 -8.177373 19.564921 -4.016675 -2.442950 -12.339173 33.047343 -8.572914 9.907658 10.474998 1.394050 
-1.699741 0.568486 0.996026 90.349406 -1.747076 88.625384 0.416428 3.000498 7.198860 2.999648 -17.495909 -6.939940 5.319115 11.654067 -16.661504 0.000000 -0.000000 0.000000 -2.300406 -5.752807 3.817895 -3.783466 7.176034 -2.505763 4.344157 -17.919819 -10.215310 0.000000 -0.000000 0.000000 0.641709 0.876107 5.786561 -1.081084 -1.835251 0.362650 -0.622592 -1.177945 7.452582 -0.895429 -12.035811 2.324000 2.038111 -9.410346 -1.119828 -8.515688 10.278557 -2.183500 -18.918516 -3.613639 -5.771354 7.257492 -34.146200 3.256881 0.831747 -14.375340 8.489393 2.697504 -5.340018 -8.477292 19.767314 -4.466102 -2.406098 -12.350598 33.213694 -8.663887 9.285425 10.508190 1.615319 
-1.701872 0.565526 0.996633 90.727453 -1.926751 88.764336 0.401496 2.987325 6.362430 2.760051 -17.687579 -5.934672 5.135379 11.456250 -16.925586 0.000000 -0.000000 0.000000 -2.338053 -5.758869 3.617613 -3.638148 6.921146 -2.558067 4.329410 -18.002027 -10.143252 0.000000 -0.000000 0.000000 0.630574 0.917567 6.430754 -1.094694 -1.922929 0.259314 -0.654293 -1.193277 7.398547 -0.971955 -15.296946 1.106577 2.884989 -12.657295 -2.837120 -8.664087 10.246525 -2.320642 -18.778900 -3.447688 -5.703994 7.354818 -34.134252 3.247890 1.482684 -14.585359 8.995646 2.621572 -5.031627 -8.738616 20.027327 -5.094358 -2.409726 -12.234795 33.202241 -8.585799 8.592969 10.505564 1.905855 
-1.703505 0.563918 0.997121 91.045197 -2.132730 88.913296 0.304656 2.999557 5.544627 2.441805 -17.889451 -4.938526 5.058513 11.284806 -17.187341 0.000000 -0.000000 0.000000 -2.491190 -5.836321 3.465120 -3.535722 6.770149 -2.700380 4.343904 -18.051825 -10.086288 0.000000 -0.000000 0.000000 0.579078 0.953691 6.909097 -1.122168 -2.045600 0.042515 -0.674411 -1.221119 7.312111 -0.929199 -17.105435 0.406030 3.407226 -14.331186 -3.656901 -8.765767 10.190440 -2.355437 -18.669760 -3.343329 -5.718828 7.429782 -34.017195 3.117592 1.962975 -14.728229 9.206377 2.577732 -4.814111 -8.835656 20.115571 -5.473025 -2.437284 -12.171256 33.078876 -8.576037 8.208282 10.523501 2.102973 
-1.706052 0.562253 0.997889 91.689094 -2.540920 89.191929 0.148516 3.062084 3.815054 1.406337 -18.233670 -2.580111 5.021215 11.002395 -18.347899 0.000000 -0.000000 0.000000 -2.864602 -6.057893 3.263137 -3.409290 6.567645 -3.075404 4.383301 -18.186349 -9.987103 0.000000 -0.000000 0.000000 0.423926 0.996217 7.615083 -1.150355 -2.364293 -0.459350 -0.702353 -1.296165 7.123696 -0.785597 -19.126647 -0.384885 4.070232 -15.933355 -4.589643 -8.858759 10.045369 -2.274727 -18.532632 -3.215322 -5.857674 7.515755 -33.722189 2.968241 2.670968 -14.919623 9.160097 2.498161 -4.552285 -8.881812 20.200706 -5.894654 -2.564959 -12.142300 32.756239 -8.690879 7.538482 10.516467 2.057860 
-1.708703 0.561289 0.998685 92.596146 -3.053848 89.504701 0.023277 3.079821 1.349479 -0.395771 -18.156208 1.124909 4.928332 10.754453 -20.473978 0.000000 -0.000000 0.000000 -3.355459 -6.337154 3.179924 -3.352460 6.289405 -3.683654 4.444406 -18.427881 -9.851957 0.000000 -0.000000 0.000000 0.164959 1.099797 8.266886 -1.126290 -2.869436 -1.037553 -0.749587 -1.464395 6.952176 -0.573134 -20.637008 -0.926927 4.746394 -17.008985 -5.308261 -8.901477 9.774873 -2.166430 -18.322466 -3.116578 -6.024610 7.552320 -33.294964 2.924665 3.361374 -15.124314 9.029616 2.451827 -4.379267 -8.965620 20.218931 -6.193542 -2.730488 -12.188130 32.371188 -8.928588 6.767737 10.487708 1.735059 
-1.710932 0.560875 0.999322 93.421481 -3.466190 89.666129 0.057150 2.903783 -1.027626 -2.231814 -17.139027 5.039060 4.832570 10.806164 -22.448752 0.000000 -0.000000 0.000000 -3.753613 -6.560331 3.376500 -3.360622 6.019969 -4.430839 4.489403 -18.682392 -9.671846 0.000000 -0.000000 0.000000 -0.084173 1.355540 8.817466 -1.047252 -3.368736 -1.394627 -0.780157 -1.636921 6.840273 -0.216399 -21.700434 -1.374258 5.440901 -17.679376 -5.851162 -8.895906 9.365670 -2.078325 -17.997829 -3.059179 -6.162975 7.490539 -32.898607 3.006784 3.899450 -15.320070 9.137898 2.441618 -4.264710 -9.067882 20.150025 -6.444198 -2.919662 -12.287016 32.062710 -9.294803 6.091185 10.478051 1.343978 
